<svg width="835" height="13" viewBox="0 0 835 13" fill="none" xmlns="http://www.w3.org/2000/svg">
<g clip-path="url(#clip0_2_1161)">
<rect y="1" width="9" height="9" fill="#ddecff"/>
<circle cx="139.5" cy="5.5" r="5.5" fill="#ddecff"/>
<path d="M72 1L77.1962 10H66.8038L72 1Z" fill="#ddecff"/>
<rect x="202" y="10" width="3.60001" height="9.67163" transform="rotate(-90 202 10)" fill="#ddecff"/>
<rect x="202" y="4.60059" width="3.60001" height="9.67163" transform="rotate(-90 202 4.60059)" fill="#ddecff"/>
<rect x="269" y="1" width="9" height="9" fill="#ddecff"/>
<circle cx="408.5" cy="5.5" r="5.5" fill="#ddecff"/>
<path d="M341 1L346.196 10H335.804L341 1Z" fill="#ddecff"/>
<rect x="471" y="10" width="3.60001" height="9.67163" transform="rotate(-90 471 10)" fill="#ddecff"/>
<rect x="471" y="4.60059" width="3.60001" height="9.67163" transform="rotate(-90 471 4.60059)" fill="#ddecff"/>
<rect x="538" y="1" width="9" height="9" fill="#ddecff"/>
<circle cx="677.5" cy="5.5" r="5.5" fill="#ddecff"/>
<path d="M610 1L615.196 10H604.804L610 1Z" fill="#ddecff"/>
<rect x="740" y="10" width="3.60001" height="9.67163" transform="rotate(-90 740 10)" fill="#ddecff"/>
<rect x="740" y="4.60059" width="3.60001" height="9.67163" transform="rotate(-90 740 4.60059)" fill="#ddecff"/>
<rect x="807" y="1" width="9" height="9" fill="#ddecff"/>
</g>
<defs>
<clipPath id="clip0_2_1161">
<rect width="917" height="13" fill="#ddecff"/>
</clipPath>
</defs>
</svg>
